<mxfile host="Electron" modified="2023-11-23T21:21:27.670Z" agent="Mozilla/5.0 (Windows NT 10.0; Win64; x64) AppleWebKit/537.36 (KHTML, like Gecko) draw.io/22.0.2 Chrome/114.0.5735.289 Electron/25.8.4 Safari/537.36" etag="_XTvF16jNY-Vhmz9KGPv" version="22.0.2" type="device">
  <diagram name="Сторінка-1" id="i_IKX6dSjePfGjCaPYCy">
    <mxGraphModel dx="1863" dy="710" grid="1" gridSize="10" guides="1" tooltips="1" connect="1" arrows="1" fold="1" page="1" pageScale="1" pageWidth="827" pageHeight="1169" math="0" shadow="0">
      <root>
        <mxCell id="0" />
        <mxCell id="1" parent="0" />
        <mxCell id="c49UWNP6-j5O5LBfrFCh-3" value="" style="edgeStyle=orthogonalEdgeStyle;rounded=0;orthogonalLoop=1;jettySize=auto;html=1;" parent="1" source="c49UWNP6-j5O5LBfrFCh-1" target="c49UWNP6-j5O5LBfrFCh-2" edge="1">
          <mxGeometry relative="1" as="geometry" />
        </mxCell>
        <mxCell id="c49UWNP6-j5O5LBfrFCh-1" value="Start&lt;br&gt;" style="ellipse;whiteSpace=wrap;html=1;fillColor=#dae8fc;strokeColor=#6c8ebf;" parent="1" vertex="1">
          <mxGeometry x="350" y="10" width="120" height="80" as="geometry" />
        </mxCell>
        <mxCell id="c49UWNP6-j5O5LBfrFCh-7" value="" style="edgeStyle=orthogonalEdgeStyle;rounded=0;orthogonalLoop=1;jettySize=auto;html=1;" parent="1" source="c49UWNP6-j5O5LBfrFCh-2" target="c49UWNP6-j5O5LBfrFCh-4" edge="1">
          <mxGeometry relative="1" as="geometry" />
        </mxCell>
        <mxCell id="c49UWNP6-j5O5LBfrFCh-2" value="&lt;div style=&quot;color: rgb(204, 204, 204); background-color: rgb(31, 31, 31); font-family: Consolas, &amp;quot;Courier New&amp;quot;, monospace; font-size: 20px; line-height: 27px;&quot;&gt;Weatheratmoment&lt;/div&gt;" style="shape=parallelogram;perimeter=parallelogramPerimeter;whiteSpace=wrap;html=1;fixedSize=1;" parent="1" vertex="1">
          <mxGeometry x="260" y="130" width="300" height="40" as="geometry" />
        </mxCell>
        <mxCell id="c49UWNP6-j5O5LBfrFCh-13" value="" style="edgeStyle=orthogonalEdgeStyle;rounded=0;orthogonalLoop=1;jettySize=auto;html=1;" parent="1" source="c49UWNP6-j5O5LBfrFCh-4" target="c49UWNP6-j5O5LBfrFCh-12" edge="1">
          <mxGeometry relative="1" as="geometry" />
        </mxCell>
        <mxCell id="c49UWNP6-j5O5LBfrFCh-4" value="&lt;div style=&quot;color: rgb(204, 204, 204); background-color: rgb(31, 31, 31); font-family: Consolas, &amp;quot;Courier New&amp;quot;, monospace; font-size: 20px; line-height: 27px;&quot;&gt;Weatheratmoment &lt;span style=&quot;color: #dcdcaa;&quot;&gt;==&lt;/span&gt; &lt;span style=&quot;color: #ce9178;&quot;&gt;&quot;snowy&quot;&lt;/span&gt; &lt;span style=&quot;color: #d4d4d4;&quot;&gt;||&lt;/span&gt; &lt;span style=&quot;color: #9cdcfe;&quot;&gt;Weatheratmoment&lt;/span&gt; &lt;span style=&quot;color: #dcdcaa;&quot;&gt;==&lt;/span&gt; &lt;span style=&quot;color: #ce9178;&quot;&gt;&quot;rainy&quot;&lt;/span&gt;&lt;/div&gt;" style="rhombus;whiteSpace=wrap;html=1;fillColor=#f8cecc;strokeColor=#b85450;" parent="1" vertex="1">
          <mxGeometry x="70" y="210" width="680" height="150" as="geometry" />
        </mxCell>
        <mxCell id="c49UWNP6-j5O5LBfrFCh-17" style="edgeStyle=orthogonalEdgeStyle;rounded=0;orthogonalLoop=1;jettySize=auto;html=1;exitX=0;exitY=0.5;exitDx=0;exitDy=0;entryX=0.5;entryY=0;entryDx=0;entryDy=0;" parent="1" source="c49UWNP6-j5O5LBfrFCh-5" target="c49UWNP6-j5O5LBfrFCh-16" edge="1">
          <mxGeometry relative="1" as="geometry" />
        </mxCell>
        <mxCell id="c49UWNP6-j5O5LBfrFCh-20" value="" style="edgeStyle=orthogonalEdgeStyle;rounded=0;orthogonalLoop=1;jettySize=auto;html=1;" parent="1" source="c49UWNP6-j5O5LBfrFCh-5" target="c49UWNP6-j5O5LBfrFCh-18" edge="1">
          <mxGeometry relative="1" as="geometry" />
        </mxCell>
        <mxCell id="c49UWNP6-j5O5LBfrFCh-5" value="&lt;div style=&quot;color: rgb(204, 204, 204); background-color: rgb(31, 31, 31); font-family: Consolas, &amp;quot;Courier New&amp;quot;, monospace; font-size: 20px; line-height: 27px;&quot;&gt;Weatheratmoment &lt;span style=&quot;color: #dcdcaa;&quot;&gt;==&lt;/span&gt; &lt;span style=&quot;color: #ce9178;&quot;&gt;&quot;sunny&quot;&lt;/span&gt;&lt;/div&gt;" style="rhombus;whiteSpace=wrap;html=1;fillColor=#f8cecc;strokeColor=#b85450;" parent="1" vertex="1">
          <mxGeometry x="200" y="430" width="390" height="110" as="geometry" />
        </mxCell>
        <mxCell id="c49UWNP6-j5O5LBfrFCh-11" style="edgeStyle=orthogonalEdgeStyle;rounded=0;orthogonalLoop=1;jettySize=auto;html=1;exitX=0.5;exitY=1;exitDx=0;exitDy=0;" parent="1" source="c49UWNP6-j5O5LBfrFCh-8" target="c49UWNP6-j5O5LBfrFCh-5" edge="1">
          <mxGeometry relative="1" as="geometry" />
        </mxCell>
        <mxCell id="c49UWNP6-j5O5LBfrFCh-8" value="&lt;br&gt;&lt;div style=&quot;color: rgb(204, 204, 204); background-color: rgb(31, 31, 31); font-family: Consolas, &amp;quot;Courier New&amp;quot;, monospace; font-weight: normal; font-size: 20px; line-height: 27px;&quot;&gt;&lt;div&gt;&lt;span style=&quot;color: #ce9178;&quot;&gt;&quot;You should take a jacket!&lt;/span&gt;&lt;span style=&quot;color: #ce9178;&quot;&gt;&quot;&lt;/span&gt;&lt;/div&gt;&lt;/div&gt;&lt;br&gt;" style="shape=parallelogram;perimeter=parallelogramPerimeter;whiteSpace=wrap;html=1;fixedSize=1;" parent="1" vertex="1">
          <mxGeometry x="788" y="246" width="300" height="78" as="geometry" />
        </mxCell>
        <mxCell id="c49UWNP6-j5O5LBfrFCh-14" style="edgeStyle=orthogonalEdgeStyle;rounded=0;orthogonalLoop=1;jettySize=auto;html=1;exitX=0.5;exitY=1;exitDx=0;exitDy=0;entryX=0.5;entryY=0;entryDx=0;entryDy=0;" parent="1" source="c49UWNP6-j5O5LBfrFCh-12" target="c49UWNP6-j5O5LBfrFCh-5" edge="1">
          <mxGeometry relative="1" as="geometry" />
        </mxCell>
        <mxCell id="c49UWNP6-j5O5LBfrFCh-12" value="&lt;div style=&quot;color: rgb(204, 204, 204); background-color: rgb(31, 31, 31); font-family: Consolas, &amp;quot;Courier New&amp;quot;, monospace; font-size: 20px; line-height: 27px;&quot;&gt;&quot;No need to take a jacket!&lt;span style=&quot;color: #ce9178;&quot;&gt;&quot;&lt;/span&gt;&lt;/div&gt;" style="shape=parallelogram;perimeter=parallelogramPerimeter;whiteSpace=wrap;html=1;fixedSize=1;" parent="1" vertex="1">
          <mxGeometry x="-170" y="255" width="220" height="60" as="geometry" />
        </mxCell>
        <mxCell id="c49UWNP6-j5O5LBfrFCh-23" value="" style="edgeStyle=orthogonalEdgeStyle;rounded=0;orthogonalLoop=1;jettySize=auto;html=1;" parent="1" source="c49UWNP6-j5O5LBfrFCh-16" target="c49UWNP6-j5O5LBfrFCh-22" edge="1">
          <mxGeometry relative="1" as="geometry" />
        </mxCell>
        <mxCell id="c49UWNP6-j5O5LBfrFCh-24" style="edgeStyle=orthogonalEdgeStyle;rounded=0;orthogonalLoop=1;jettySize=auto;html=1;exitX=0;exitY=0.5;exitDx=0;exitDy=0;" parent="1" source="c49UWNP6-j5O5LBfrFCh-16" edge="1">
          <mxGeometry relative="1" as="geometry">
            <mxPoint x="400" y="810" as="targetPoint" />
          </mxGeometry>
        </mxCell>
        <mxCell id="c49UWNP6-j5O5LBfrFCh-16" value="&lt;div style=&quot;color: rgb(204, 204, 204); background-color: rgb(31, 31, 31); font-family: Consolas, &amp;quot;Courier New&amp;quot;, monospace; font-size: 20px; line-height: 27px;&quot;&gt;&lt;div style=&quot;line-height: 27px;&quot;&gt;Weatheratmoment &lt;span style=&quot;color: #dcdcaa;&quot;&gt;==&lt;/span&gt; &lt;span style=&quot;color: #ce9178;&quot;&gt;&quot;rainy&quot;&lt;/span&gt;&lt;/div&gt;&lt;/div&gt;" style="rhombus;whiteSpace=wrap;html=1;fillColor=#f8cecc;strokeColor=#b85450;" parent="1" vertex="1">
          <mxGeometry x="200" y="610" width="390" height="110" as="geometry" />
        </mxCell>
        <mxCell id="c49UWNP6-j5O5LBfrFCh-21" style="edgeStyle=orthogonalEdgeStyle;rounded=0;orthogonalLoop=1;jettySize=auto;html=1;exitX=0.5;exitY=1;exitDx=0;exitDy=0;entryX=0.5;entryY=0;entryDx=0;entryDy=0;" parent="1" source="c49UWNP6-j5O5LBfrFCh-18" target="c49UWNP6-j5O5LBfrFCh-16" edge="1">
          <mxGeometry relative="1" as="geometry" />
        </mxCell>
        <mxCell id="c49UWNP6-j5O5LBfrFCh-18" value="&lt;div style=&quot;color: rgb(204, 204, 204); background-color: rgb(31, 31, 31); font-family: Consolas, &amp;quot;Courier New&amp;quot;, monospace; font-size: 20px; line-height: 27px;&quot;&gt;&quot;A great day for a picnic!&lt;span style=&quot;color: #ce9178;&quot;&gt;&quot;&lt;/span&gt;&lt;/div&gt;" style="shape=parallelogram;perimeter=parallelogramPerimeter;whiteSpace=wrap;html=1;fixedSize=1;" parent="1" vertex="1">
          <mxGeometry x="668" y="442.5" width="352" height="85" as="geometry" />
        </mxCell>
        <mxCell id="c49UWNP6-j5O5LBfrFCh-25" style="edgeStyle=orthogonalEdgeStyle;rounded=0;orthogonalLoop=1;jettySize=auto;html=1;exitX=0.5;exitY=1;exitDx=0;exitDy=0;" parent="1" source="c49UWNP6-j5O5LBfrFCh-22" edge="1">
          <mxGeometry relative="1" as="geometry">
            <mxPoint x="400" y="810" as="targetPoint" />
          </mxGeometry>
        </mxCell>
        <mxCell id="c49UWNP6-j5O5LBfrFCh-22" value="&lt;div style=&quot;color: rgb(204, 204, 204); background-color: rgb(31, 31, 31); font-family: Consolas, &amp;quot;Courier New&amp;quot;, monospace; font-size: 20px; line-height: 27px;&quot;&gt;&quot;Perfect weather to read a book inside!&lt;span style=&quot;color: #ce9178;&quot;&gt;&quot;&lt;/span&gt;&lt;/div&gt;" style="shape=parallelogram;perimeter=parallelogramPerimeter;whiteSpace=wrap;html=1;fixedSize=1;" parent="1" vertex="1">
          <mxGeometry x="660" y="622.5" width="380" height="85" as="geometry" />
        </mxCell>
        <mxCell id="c49UWNP6-j5O5LBfrFCh-28" value="" style="edgeStyle=orthogonalEdgeStyle;rounded=0;orthogonalLoop=1;jettySize=auto;html=1;" parent="1" source="c49UWNP6-j5O5LBfrFCh-26" target="c49UWNP6-j5O5LBfrFCh-27" edge="1">
          <mxGeometry relative="1" as="geometry" />
        </mxCell>
        <mxCell id="c49UWNP6-j5O5LBfrFCh-26" value="&lt;div style=&quot;color: rgb(204, 204, 204); background-color: rgb(31, 31, 31); font-family: Consolas, &amp;quot;Courier New&amp;quot;, monospace; font-size: 20px; line-height: 27px;&quot;&gt;&lt;div style=&quot;line-height: 27px;&quot;&gt;&lt;div style=&quot;line-height: 27px;&quot;&gt;(Weatheratmoment &lt;span style=&quot;color: #dcdcaa;&quot;&gt;==&lt;/span&gt; &lt;span style=&quot;color: #ce9178;&quot;&gt;&quot;cloudy&quot;&lt;/span&gt;)&lt;/div&gt;&lt;/div&gt;&lt;/div&gt;" style="rhombus;whiteSpace=wrap;html=1;fillColor=#f8cecc;strokeColor=#b85450;" parent="1" vertex="1">
          <mxGeometry x="204" y="810" width="390" height="110" as="geometry" />
        </mxCell>
        <mxCell id="c49UWNP6-j5O5LBfrFCh-31" style="edgeStyle=orthogonalEdgeStyle;rounded=0;orthogonalLoop=1;jettySize=auto;html=1;exitX=0.5;exitY=1;exitDx=0;exitDy=0;entryX=0.5;entryY=0;entryDx=0;entryDy=0;" parent="1" source="c49UWNP6-j5O5LBfrFCh-27" target="c49UWNP6-j5O5LBfrFCh-29" edge="1">
          <mxGeometry relative="1" as="geometry" />
        </mxCell>
        <mxCell id="c49UWNP6-j5O5LBfrFCh-27" value="&lt;div style=&quot;color: rgb(204, 204, 204); background-color: rgb(31, 31, 31); font-family: Consolas, &amp;quot;Courier New&amp;quot;, monospace; font-size: 20px; line-height: 27px;&quot;&gt;&quot;Maybe visit a museum?&lt;span style=&quot;color: #ce9178;&quot;&gt;&quot;&lt;/span&gt;&lt;/div&gt;" style="shape=parallelogram;perimeter=parallelogramPerimeter;whiteSpace=wrap;html=1;fixedSize=1;" parent="1" vertex="1">
          <mxGeometry x="660" y="817.5" width="370" height="95" as="geometry" />
        </mxCell>
        <mxCell id="c49UWNP6-j5O5LBfrFCh-33" value="" style="edgeStyle=orthogonalEdgeStyle;rounded=0;orthogonalLoop=1;jettySize=auto;html=1;" parent="1" source="c49UWNP6-j5O5LBfrFCh-29" target="c49UWNP6-j5O5LBfrFCh-32" edge="1">
          <mxGeometry relative="1" as="geometry" />
        </mxCell>
        <mxCell id="c49UWNP6-j5O5LBfrFCh-36" style="edgeStyle=orthogonalEdgeStyle;rounded=0;orthogonalLoop=1;jettySize=auto;html=1;exitX=0;exitY=0.5;exitDx=0;exitDy=0;entryX=0.5;entryY=0;entryDx=0;entryDy=0;" parent="1" source="c49UWNP6-j5O5LBfrFCh-29" target="c49UWNP6-j5O5LBfrFCh-34" edge="1">
          <mxGeometry relative="1" as="geometry" />
        </mxCell>
        <mxCell id="c49UWNP6-j5O5LBfrFCh-29" value="&lt;div style=&quot;color: rgb(204, 204, 204); background-color: rgb(31, 31, 31); font-family: Consolas, &amp;quot;Courier New&amp;quot;, monospace; font-size: 20px; line-height: 27px;&quot;&gt;&lt;div style=&quot;line-height: 27px;&quot;&gt;&lt;div style=&quot;line-height: 27px;&quot;&gt;&lt;div style=&quot;line-height: 27px;&quot;&gt;Weatheratmoment &lt;span style=&quot;color: #dcdcaa;&quot;&gt;==&lt;/span&gt; &lt;span style=&quot;color: #ce9178;&quot;&gt;&quot;snowy&quot;&lt;/span&gt;&lt;/div&gt;&lt;/div&gt;&lt;/div&gt;&lt;/div&gt;" style="rhombus;whiteSpace=wrap;html=1;fillColor=#f8cecc;strokeColor=#b85450;" parent="1" vertex="1">
          <mxGeometry x="204" y="970" width="390" height="110" as="geometry" />
        </mxCell>
        <mxCell id="c49UWNP6-j5O5LBfrFCh-30" style="edgeStyle=orthogonalEdgeStyle;rounded=0;orthogonalLoop=1;jettySize=auto;html=1;exitX=0;exitY=0.5;exitDx=0;exitDy=0;entryX=0.5;entryY=0;entryDx=0;entryDy=0;" parent="1" source="c49UWNP6-j5O5LBfrFCh-26" target="c49UWNP6-j5O5LBfrFCh-29" edge="1">
          <mxGeometry relative="1" as="geometry" />
        </mxCell>
        <mxCell id="c49UWNP6-j5O5LBfrFCh-35" style="edgeStyle=orthogonalEdgeStyle;rounded=0;orthogonalLoop=1;jettySize=auto;html=1;exitX=0.5;exitY=1;exitDx=0;exitDy=0;entryX=0.5;entryY=0;entryDx=0;entryDy=0;" parent="1" source="c49UWNP6-j5O5LBfrFCh-32" target="c49UWNP6-j5O5LBfrFCh-34" edge="1">
          <mxGeometry relative="1" as="geometry" />
        </mxCell>
        <mxCell id="c49UWNP6-j5O5LBfrFCh-32" value="&lt;div style=&quot;color: rgb(204, 204, 204); background-color: rgb(31, 31, 31); font-family: Consolas, &amp;quot;Courier New&amp;quot;, monospace; font-size: 20px; line-height: 27px;&quot;&gt;&lt;div style=&quot;line-height: 27px;&quot;&gt;&quot;How about making a snowman?&lt;span style=&quot;color: #ce9178;&quot;&gt;&quot;&lt;/span&gt;&lt;/div&gt;&lt;/div&gt;" style="shape=parallelogram;perimeter=parallelogramPerimeter;whiteSpace=wrap;html=1;fixedSize=1;" parent="1" vertex="1">
          <mxGeometry x="668" y="995" width="352" height="60" as="geometry" />
        </mxCell>
        <mxCell id="c49UWNP6-j5O5LBfrFCh-38" value="" style="edgeStyle=orthogonalEdgeStyle;rounded=0;orthogonalLoop=1;jettySize=auto;html=1;" parent="1" source="c49UWNP6-j5O5LBfrFCh-34" target="c49UWNP6-j5O5LBfrFCh-37" edge="1">
          <mxGeometry relative="1" as="geometry" />
        </mxCell>
        <mxCell id="c49UWNP6-j5O5LBfrFCh-42" style="edgeStyle=orthogonalEdgeStyle;rounded=0;orthogonalLoop=1;jettySize=auto;html=1;exitX=0;exitY=0.5;exitDx=0;exitDy=0;entryX=0.5;entryY=0;entryDx=0;entryDy=0;" parent="1" source="c49UWNP6-j5O5LBfrFCh-34" edge="1">
          <mxGeometry relative="1" as="geometry">
            <mxPoint x="399" y="1310" as="targetPoint" />
          </mxGeometry>
        </mxCell>
        <mxCell id="c49UWNP6-j5O5LBfrFCh-34" value="&lt;div style=&quot;color: rgb(204, 204, 204); background-color: rgb(31, 31, 31); font-family: Consolas, &amp;quot;Courier New&amp;quot;, monospace; font-size: 20px; line-height: 27px;&quot;&gt;&lt;div style=&quot;line-height: 27px;&quot;&gt;&lt;div style=&quot;line-height: 27px;&quot;&gt;&lt;div style=&quot;line-height: 27px;&quot;&gt;Weatheratmoment &lt;span style=&quot;color: #dcdcaa;&quot;&gt;==&lt;/span&gt; &lt;span style=&quot;color: #ce9178;&quot;&gt;&quot;windy&quot;&lt;/span&gt;&lt;/div&gt;&lt;/div&gt;&lt;/div&gt;&lt;/div&gt;" style="rhombus;whiteSpace=wrap;html=1;fillColor=#f8cecc;strokeColor=#b85450;" parent="1" vertex="1">
          <mxGeometry x="204" y="1140" width="390" height="110" as="geometry" />
        </mxCell>
        <mxCell id="c49UWNP6-j5O5LBfrFCh-43" style="edgeStyle=orthogonalEdgeStyle;rounded=0;orthogonalLoop=1;jettySize=auto;html=1;exitX=0.5;exitY=1;exitDx=0;exitDy=0;entryX=0.5;entryY=0;entryDx=0;entryDy=0;" parent="1" source="c49UWNP6-j5O5LBfrFCh-37" edge="1">
          <mxGeometry relative="1" as="geometry">
            <mxPoint x="399" y="1310" as="targetPoint" />
          </mxGeometry>
        </mxCell>
        <mxCell id="c49UWNP6-j5O5LBfrFCh-37" value="&lt;div style=&quot;color: rgb(204, 204, 204); background-color: rgb(31, 31, 31); font-family: Consolas, &amp;quot;Courier New&amp;quot;, monospace; font-size: 20px; line-height: 27px;&quot;&gt;&quot;Fly a kite if you have one!&lt;span style=&quot;color: #ce9178;&quot;&gt;&quot;&lt;/span&gt;&lt;/div&gt;" style="shape=parallelogram;perimeter=parallelogramPerimeter;whiteSpace=wrap;html=1;fixedSize=1;" parent="1" vertex="1">
          <mxGeometry x="660" y="1165" width="360" height="60" as="geometry" />
        </mxCell>
        <mxCell id="c49UWNP6-j5O5LBfrFCh-46" value="" style="edgeStyle=orthogonalEdgeStyle;rounded=0;orthogonalLoop=1;jettySize=auto;html=1;" parent="1" source="c49UWNP6-j5O5LBfrFCh-44" target="c49UWNP6-j5O5LBfrFCh-45" edge="1">
          <mxGeometry relative="1" as="geometry" />
        </mxCell>
        <mxCell id="c49UWNP6-j5O5LBfrFCh-44" value="&lt;div style=&quot;color: rgb(204, 204, 204); background-color: rgb(31, 31, 31); font-family: Consolas, &amp;quot;Courier New&amp;quot;, monospace; font-size: 20px; line-height: 27px;&quot;&gt;Weatheratmoment&lt;span style=&quot;color: #dcdcaa;&quot;&gt;[&lt;/span&gt;&lt;span style=&quot;color: #b5cea8;&quot;&gt;0&lt;/span&gt;&lt;span style=&quot;color: #dcdcaa;&quot;&gt;]&lt;/span&gt;&lt;/div&gt;" style="rounded=0;whiteSpace=wrap;html=1;" parent="1" vertex="1">
          <mxGeometry x="260" y="1310" width="291" height="50" as="geometry" />
        </mxCell>
        <mxCell id="c49UWNP6-j5O5LBfrFCh-51" value="" style="edgeStyle=orthogonalEdgeStyle;rounded=0;orthogonalLoop=1;jettySize=auto;html=1;" parent="1" source="c49UWNP6-j5O5LBfrFCh-45" target="c49UWNP6-j5O5LBfrFCh-48" edge="1">
          <mxGeometry relative="1" as="geometry" />
        </mxCell>
        <mxCell id="c49UWNP6-j5O5LBfrFCh-62" style="edgeStyle=orthogonalEdgeStyle;rounded=0;orthogonalLoop=1;jettySize=auto;html=1;exitX=1;exitY=0.5;exitDx=0;exitDy=0;entryX=0.5;entryY=0;entryDx=0;entryDy=0;" parent="1" source="c49UWNP6-j5O5LBfrFCh-45" target="c49UWNP6-j5O5LBfrFCh-60" edge="1">
          <mxGeometry relative="1" as="geometry" />
        </mxCell>
        <mxCell id="c49UWNP6-j5O5LBfrFCh-45" value="&#xa;&lt;div style=&quot;color: rgb(204, 204, 204); background-color: rgb(31, 31, 31); font-family: Consolas, &amp;quot;Courier New&amp;quot;, monospace; font-weight: normal; font-size: 20px; line-height: 27px;&quot;&gt;&lt;div&gt;&lt;span style=&quot;color: #ce9178;&quot;&gt;&#39;s&#39;&lt;/span&gt;&lt;/div&gt;&lt;/div&gt;&#xa;&#xa;" style="rhombus;whiteSpace=wrap;html=1;fillColor=#f8cecc;strokeColor=#b85450;" parent="1" vertex="1">
          <mxGeometry x="210.5" y="1410" width="390" height="110" as="geometry" />
        </mxCell>
        <mxCell id="c49UWNP6-j5O5LBfrFCh-52" value="" style="edgeStyle=orthogonalEdgeStyle;rounded=0;orthogonalLoop=1;jettySize=auto;html=1;" parent="1" source="c49UWNP6-j5O5LBfrFCh-48" target="c49UWNP6-j5O5LBfrFCh-49" edge="1">
          <mxGeometry relative="1" as="geometry" />
        </mxCell>
        <mxCell id="c49UWNP6-j5O5LBfrFCh-56" value="" style="edgeStyle=orthogonalEdgeStyle;rounded=0;orthogonalLoop=1;jettySize=auto;html=1;" parent="1" source="c49UWNP6-j5O5LBfrFCh-48" target="c49UWNP6-j5O5LBfrFCh-54" edge="1">
          <mxGeometry relative="1" as="geometry" />
        </mxCell>
        <mxCell id="c49UWNP6-j5O5LBfrFCh-48" value="&lt;div style=&quot;color: rgb(204, 204, 204); background-color: rgb(31, 31, 31); font-family: Consolas, &amp;quot;Courier New&amp;quot;, monospace; font-size: 20px; line-height: 27px;&quot;&gt;&#39;r&#39;&lt;/div&gt;" style="rhombus;whiteSpace=wrap;html=1;fillColor=#f8cecc;strokeColor=#b85450;" parent="1" vertex="1">
          <mxGeometry x="210.5" y="1811" width="390" height="110" as="geometry" />
        </mxCell>
        <mxCell id="c49UWNP6-j5O5LBfrFCh-53" value="" style="edgeStyle=orthogonalEdgeStyle;rounded=0;orthogonalLoop=1;jettySize=auto;html=1;" parent="1" source="c49UWNP6-j5O5LBfrFCh-49" target="c49UWNP6-j5O5LBfrFCh-50" edge="1">
          <mxGeometry relative="1" as="geometry" />
        </mxCell>
        <mxCell id="c49UWNP6-j5O5LBfrFCh-57" value="" style="edgeStyle=orthogonalEdgeStyle;rounded=0;orthogonalLoop=1;jettySize=auto;html=1;" parent="1" source="c49UWNP6-j5O5LBfrFCh-49" target="c49UWNP6-j5O5LBfrFCh-55" edge="1">
          <mxGeometry relative="1" as="geometry" />
        </mxCell>
        <mxCell id="c49UWNP6-j5O5LBfrFCh-49" value="&lt;div style=&quot;color: rgb(204, 204, 204); background-color: rgb(31, 31, 31); font-family: Consolas, &amp;quot;Courier New&amp;quot;, monospace; font-size: 20px; line-height: 27px;&quot;&gt;&#39;c&#39;&lt;/div&gt;" style="rhombus;whiteSpace=wrap;html=1;fillColor=#f8cecc;strokeColor=#b85450;" parent="1" vertex="1">
          <mxGeometry x="210.5" y="2001" width="390" height="110" as="geometry" />
        </mxCell>
        <mxCell id="c49UWNP6-j5O5LBfrFCh-59" value="" style="edgeStyle=orthogonalEdgeStyle;rounded=0;orthogonalLoop=1;jettySize=auto;html=1;" parent="1" source="c49UWNP6-j5O5LBfrFCh-50" target="c49UWNP6-j5O5LBfrFCh-58" edge="1">
          <mxGeometry relative="1" as="geometry" />
        </mxCell>
        <mxCell id="c49UWNP6-j5O5LBfrFCh-50" value="&lt;div style=&quot;color: rgb(204, 204, 204); background-color: rgb(31, 31, 31); font-family: Consolas, &amp;quot;Courier New&amp;quot;, monospace; font-size: 20px; line-height: 27px;&quot;&gt;&#39;w&#39;&lt;/div&gt;" style="rhombus;whiteSpace=wrap;html=1;fillColor=#f8cecc;strokeColor=#b85450;" parent="1" vertex="1">
          <mxGeometry x="210.5" y="2201" width="390" height="110" as="geometry" />
        </mxCell>
        <mxCell id="c49UWNP6-j5O5LBfrFCh-73" style="edgeStyle=orthogonalEdgeStyle;rounded=0;orthogonalLoop=1;jettySize=auto;html=1;exitX=1;exitY=0.5;exitDx=0;exitDy=0;" parent="1" source="c49UWNP6-j5O5LBfrFCh-54" edge="1">
          <mxGeometry relative="1" as="geometry">
            <mxPoint x="1119.9999999999995" y="2400" as="targetPoint" />
          </mxGeometry>
        </mxCell>
        <mxCell id="c49UWNP6-j5O5LBfrFCh-54" value="&lt;div style=&quot;color: rgb(204, 204, 204); background-color: rgb(31, 31, 31); font-family: Consolas, &amp;quot;Courier New&amp;quot;, monospace; font-size: 20px; line-height: 27px;&quot;&gt;&quot;Rain boots are a good idea!&lt;span style=&quot;color: #ce9178;&quot;&gt;&quot;&lt;/span&gt;&lt;/div&gt;" style="rounded=0;whiteSpace=wrap;html=1;" parent="1" vertex="1">
          <mxGeometry x="650" y="1836" width="280" height="60" as="geometry" />
        </mxCell>
        <mxCell id="c49UWNP6-j5O5LBfrFCh-72" style="edgeStyle=orthogonalEdgeStyle;rounded=0;orthogonalLoop=1;jettySize=auto;html=1;exitX=1;exitY=0.5;exitDx=0;exitDy=0;entryX=0.5;entryY=0;entryDx=0;entryDy=0;" parent="1" source="c49UWNP6-j5O5LBfrFCh-55" target="c49UWNP6-j5O5LBfrFCh-70" edge="1">
          <mxGeometry relative="1" as="geometry" />
        </mxCell>
        <mxCell id="c49UWNP6-j5O5LBfrFCh-55" value="&lt;div style=&quot;color: rgb(204, 204, 204); background-color: rgb(31, 31, 31); font-family: Consolas, &amp;quot;Courier New&amp;quot;, monospace; font-size: 20px; line-height: 27px;&quot;&gt;&quot;Today, any shoe is suitable!&lt;span style=&quot;color: #ce9178;&quot;&gt;&quot;&lt;/span&gt;&lt;/div&gt;" style="rounded=0;whiteSpace=wrap;html=1;" parent="1" vertex="1">
          <mxGeometry x="650" y="2016" width="290" height="80" as="geometry" />
        </mxCell>
        <mxCell id="c49UWNP6-j5O5LBfrFCh-71" style="edgeStyle=orthogonalEdgeStyle;rounded=0;orthogonalLoop=1;jettySize=auto;html=1;exitX=1;exitY=0.5;exitDx=0;exitDy=0;entryX=0.5;entryY=0;entryDx=0;entryDy=0;" parent="1" source="c49UWNP6-j5O5LBfrFCh-58" target="c49UWNP6-j5O5LBfrFCh-70" edge="1">
          <mxGeometry relative="1" as="geometry" />
        </mxCell>
        <mxCell id="c49UWNP6-j5O5LBfrFCh-58" value="&lt;div style=&quot;color: rgb(204, 204, 204); background-color: rgb(31, 31, 31); font-family: Consolas, &amp;quot;Courier New&amp;quot;, monospace; font-size: 20px; line-height: 27px;&quot;&gt;&quot;Wear something sturdy!&lt;span style=&quot;color: #ce9178;&quot;&gt;&quot;&lt;/span&gt;&lt;/div&gt;" style="rounded=0;whiteSpace=wrap;html=1;" parent="1" vertex="1">
          <mxGeometry x="650" y="2219" width="290" height="75" as="geometry" />
        </mxCell>
        <mxCell id="c49UWNP6-j5O5LBfrFCh-64" value="" style="edgeStyle=orthogonalEdgeStyle;rounded=0;orthogonalLoop=1;jettySize=auto;html=1;" parent="1" source="c49UWNP6-j5O5LBfrFCh-60" target="c49UWNP6-j5O5LBfrFCh-63" edge="1">
          <mxGeometry relative="1" as="geometry" />
        </mxCell>
        <mxCell id="c49UWNP6-j5O5LBfrFCh-66" style="edgeStyle=orthogonalEdgeStyle;rounded=0;orthogonalLoop=1;jettySize=auto;html=1;exitX=0;exitY=0.5;exitDx=0;exitDy=0;entryX=0.5;entryY=0;entryDx=0;entryDy=0;" parent="1" source="c49UWNP6-j5O5LBfrFCh-60" target="c49UWNP6-j5O5LBfrFCh-65" edge="1">
          <mxGeometry relative="1" as="geometry" />
        </mxCell>
        <mxCell id="c49UWNP6-j5O5LBfrFCh-60" value="&lt;div style=&quot;color: rgb(204, 204, 204); background-color: rgb(31, 31, 31); font-family: Consolas, &amp;quot;Courier New&amp;quot;, monospace; font-size: 20px; line-height: 27px;&quot;&gt;Weatheratmoment &lt;span style=&quot;color: #dcdcaa;&quot;&gt;==&lt;/span&gt; &lt;span style=&quot;color: #ce9178;&quot;&gt;&quot;sunny&quot;&lt;/span&gt;&lt;/div&gt;" style="rhombus;whiteSpace=wrap;html=1;" parent="1" vertex="1">
          <mxGeometry x="690" y="1490" width="390" height="125" as="geometry" />
        </mxCell>
        <mxCell id="c49UWNP6-j5O5LBfrFCh-76" style="edgeStyle=orthogonalEdgeStyle;rounded=0;orthogonalLoop=1;jettySize=auto;html=1;exitX=0.5;exitY=1;exitDx=0;exitDy=0;entryX=0.5;entryY=0;entryDx=0;entryDy=0;" parent="1" source="c49UWNP6-j5O5LBfrFCh-63" target="c49UWNP6-j5O5LBfrFCh-70" edge="1">
          <mxGeometry relative="1" as="geometry">
            <mxPoint x="1120" y="2150" as="targetPoint" />
            <Array as="points">
              <mxPoint x="1340" y="1710" />
              <mxPoint x="1120" y="1710" />
            </Array>
          </mxGeometry>
        </mxCell>
        <mxCell id="c49UWNP6-j5O5LBfrFCh-63" value="&lt;div style=&quot;color: rgb(204, 204, 204); background-color: rgb(31, 31, 31); font-family: Consolas, &amp;quot;Courier New&amp;quot;, monospace; font-size: 20px; line-height: 27px;&quot;&gt;&quot;Wear your favorite sneakers!&lt;span style=&quot;color: #ce9178;&quot;&gt;&quot;&lt;/span&gt;&lt;/div&gt;" style="shape=parallelogram;perimeter=parallelogramPerimeter;whiteSpace=wrap;html=1;fixedSize=1;" parent="1" vertex="1">
          <mxGeometry x="1160" y="1522.5" width="360" height="60" as="geometry" />
        </mxCell>
        <mxCell id="c49UWNP6-j5O5LBfrFCh-77" style="edgeStyle=orthogonalEdgeStyle;rounded=0;orthogonalLoop=1;jettySize=auto;html=1;exitX=0.5;exitY=1;exitDx=0;exitDy=0;entryX=0.5;entryY=0;entryDx=0;entryDy=0;" parent="1" source="c49UWNP6-j5O5LBfrFCh-65" target="c49UWNP6-j5O5LBfrFCh-70" edge="1">
          <mxGeometry relative="1" as="geometry">
            <mxPoint x="1119.9999999999995" y="1730" as="targetPoint" />
            <Array as="points">
              <mxPoint x="690" y="1720" />
              <mxPoint x="1120" y="1720" />
            </Array>
          </mxGeometry>
        </mxCell>
        <mxCell id="c49UWNP6-j5O5LBfrFCh-65" value="&lt;div style=&quot;color: rgb(204, 204, 204); background-color: rgb(31, 31, 31); font-family: Consolas, &amp;quot;Courier New&amp;quot;, monospace; font-size: 20px; line-height: 27px;&quot;&gt;&quot;Snow boots will keep your feet warm!&lt;span style=&quot;color: #ce9178;&quot;&gt;&quot;&lt;/span&gt;&lt;/div&gt;" style="shape=parallelogram;perimeter=parallelogramPerimeter;whiteSpace=wrap;html=1;fixedSize=1;" parent="1" vertex="1">
          <mxGeometry x="490" y="1630" width="400" height="60" as="geometry" />
        </mxCell>
        <mxCell id="c49UWNP6-j5O5LBfrFCh-70" value="Finish" style="ellipse;whiteSpace=wrap;html=1;fillColor=#dae8fc;strokeColor=#6c8ebf;" parent="1" vertex="1">
          <mxGeometry x="1060" y="2400" width="120" height="80" as="geometry" />
        </mxCell>
        <mxCell id="BM7OaDa1S1N7VrX5nOu1-1" value="YES" style="text;html=1;align=center;verticalAlign=middle;resizable=0;points=[];autosize=1;strokeColor=none;fillColor=none;" parent="1" vertex="1">
          <mxGeometry x="740" y="240" width="50" height="30" as="geometry" />
        </mxCell>
        <mxCell id="BM7OaDa1S1N7VrX5nOu1-3" value="NO" style="text;html=1;align=center;verticalAlign=middle;resizable=0;points=[];autosize=1;strokeColor=none;fillColor=none;" parent="1" vertex="1">
          <mxGeometry x="50" y="246" width="40" height="30" as="geometry" />
        </mxCell>
        <mxCell id="BM7OaDa1S1N7VrX5nOu1-4" value="YES" style="text;html=1;align=center;verticalAlign=middle;resizable=0;points=[];autosize=1;strokeColor=none;fillColor=none;" parent="1" vertex="1">
          <mxGeometry x="610" y="450" width="50" height="30" as="geometry" />
        </mxCell>
        <mxCell id="BM7OaDa1S1N7VrX5nOu1-5" value="YES" style="text;html=1;align=center;verticalAlign=middle;resizable=0;points=[];autosize=1;strokeColor=none;fillColor=none;" parent="1" vertex="1">
          <mxGeometry x="600" y="630" width="50" height="30" as="geometry" />
        </mxCell>
        <mxCell id="BM7OaDa1S1N7VrX5nOu1-6" value="YES" style="text;html=1;align=center;verticalAlign=middle;resizable=0;points=[];autosize=1;strokeColor=none;fillColor=none;" parent="1" vertex="1">
          <mxGeometry x="610" y="830" width="50" height="30" as="geometry" />
        </mxCell>
        <mxCell id="BM7OaDa1S1N7VrX5nOu1-7" value="YES" style="text;html=1;align=center;verticalAlign=middle;resizable=0;points=[];autosize=1;strokeColor=none;fillColor=none;" parent="1" vertex="1">
          <mxGeometry x="610" y="980" width="50" height="30" as="geometry" />
        </mxCell>
        <mxCell id="BM7OaDa1S1N7VrX5nOu1-8" value="YES" style="text;html=1;align=center;verticalAlign=middle;resizable=0;points=[];autosize=1;strokeColor=none;fillColor=none;" parent="1" vertex="1">
          <mxGeometry x="610" y="1150" width="50" height="30" as="geometry" />
        </mxCell>
        <mxCell id="BM7OaDa1S1N7VrX5nOu1-9" value="YES" style="text;html=1;align=center;verticalAlign=middle;resizable=0;points=[];autosize=1;strokeColor=none;fillColor=none;" parent="1" vertex="1">
          <mxGeometry x="660" y="1420" width="50" height="30" as="geometry" />
        </mxCell>
        <mxCell id="BM7OaDa1S1N7VrX5nOu1-10" value="YES" style="text;html=1;align=center;verticalAlign=middle;resizable=0;points=[];autosize=1;strokeColor=none;fillColor=none;" parent="1" vertex="1">
          <mxGeometry x="1092" y="1517" width="50" height="30" as="geometry" />
        </mxCell>
        <mxCell id="BM7OaDa1S1N7VrX5nOu1-11" value="YES" style="text;html=1;align=center;verticalAlign=middle;resizable=0;points=[];autosize=1;strokeColor=none;fillColor=none;" parent="1" vertex="1">
          <mxGeometry x="600.5" y="1836" width="50" height="30" as="geometry" />
        </mxCell>
        <mxCell id="BM7OaDa1S1N7VrX5nOu1-12" value="YES" style="text;html=1;align=center;verticalAlign=middle;resizable=0;points=[];autosize=1;strokeColor=none;fillColor=none;" parent="1" vertex="1">
          <mxGeometry x="600" y="2030" width="50" height="30" as="geometry" />
        </mxCell>
        <mxCell id="BM7OaDa1S1N7VrX5nOu1-13" value="YES" style="text;html=1;align=center;verticalAlign=middle;resizable=0;points=[];autosize=1;strokeColor=none;fillColor=none;" parent="1" vertex="1">
          <mxGeometry x="600" y="2230" width="50" height="30" as="geometry" />
        </mxCell>
        <mxCell id="BM7OaDa1S1N7VrX5nOu1-14" value="NO" style="text;html=1;align=center;verticalAlign=middle;resizable=0;points=[];autosize=1;strokeColor=none;fillColor=none;" parent="1" vertex="1">
          <mxGeometry x="170.5" y="450" width="40" height="30" as="geometry" />
        </mxCell>
        <mxCell id="BM7OaDa1S1N7VrX5nOu1-15" value="NO" style="text;html=1;align=center;verticalAlign=middle;resizable=0;points=[];autosize=1;strokeColor=none;fillColor=none;" parent="1" vertex="1">
          <mxGeometry x="170.5" y="630" width="40" height="30" as="geometry" />
        </mxCell>
        <mxCell id="BM7OaDa1S1N7VrX5nOu1-16" value="NO" style="text;html=1;align=center;verticalAlign=middle;resizable=0;points=[];autosize=1;strokeColor=none;fillColor=none;" parent="1" vertex="1">
          <mxGeometry x="170.5" y="840" width="40" height="30" as="geometry" />
        </mxCell>
        <mxCell id="BM7OaDa1S1N7VrX5nOu1-18" value="NO" style="text;html=1;align=center;verticalAlign=middle;resizable=0;points=[];autosize=1;strokeColor=none;fillColor=none;" parent="1" vertex="1">
          <mxGeometry x="170.5" y="990" width="40" height="30" as="geometry" />
        </mxCell>
        <mxCell id="BM7OaDa1S1N7VrX5nOu1-20" value="NO" style="text;html=1;align=center;verticalAlign=middle;resizable=0;points=[];autosize=1;strokeColor=none;fillColor=none;" parent="1" vertex="1">
          <mxGeometry x="170.5" y="1160" width="40" height="30" as="geometry" />
        </mxCell>
        <mxCell id="BM7OaDa1S1N7VrX5nOu1-21" value="NO" style="text;html=1;align=center;verticalAlign=middle;resizable=0;points=[];autosize=1;strokeColor=none;fillColor=none;" parent="1" vertex="1">
          <mxGeometry x="620" y="1582.5" width="40" height="30" as="geometry" />
        </mxCell>
        <mxCell id="BM7OaDa1S1N7VrX5nOu1-22" value="NO" style="text;html=1;align=center;verticalAlign=middle;resizable=0;points=[];autosize=1;strokeColor=none;fillColor=none;" parent="1" vertex="1">
          <mxGeometry x="350" y="1615" width="40" height="30" as="geometry" />
        </mxCell>
        <mxCell id="BM7OaDa1S1N7VrX5nOu1-23" value="NO" style="text;html=1;align=center;verticalAlign=middle;resizable=0;points=[];autosize=1;strokeColor=none;fillColor=none;" parent="1" vertex="1">
          <mxGeometry x="350" y="1930" width="40" height="30" as="geometry" />
        </mxCell>
        <mxCell id="BM7OaDa1S1N7VrX5nOu1-24" value="NO" style="text;html=1;align=center;verticalAlign=middle;resizable=0;points=[];autosize=1;strokeColor=none;fillColor=none;" parent="1" vertex="1">
          <mxGeometry x="350" y="2150" width="40" height="30" as="geometry" />
        </mxCell>
      </root>
    </mxGraphModel>
  </diagram>
</mxfile>
